<svg version="1.1" xmlns="http://www.w3.org/2000/svg" viewBox="0 0 254.2000274658203 171.39999389648438" width="254.2000274658203" height="171.39999389648438">
  <!-- svg-source:excalidraw -->
  
  <defs>
    <style class="style-fonts">
      @font-face {
        font-family: "Virgil";
        src: url("https://excalidraw.com/Virgil.woff2");
      }
      @font-face {
        font-family: "Cascadia";
        src: url("https://excalidraw.com/Cascadia.woff2");
      }
      @font-face {
        font-family: "Assistant";
        src: url("https://excalidraw.com/Assistant-Regular.woff2");
      }
    </style>
    
  </defs>
  <rect x="0" y="0" width="254.2000274658203" height="171.39999389648438" fill="#ffffff"></rect><g stroke-linecap="round" transform="translate(10 10) rotate(0 73.19999694824219 75.60000610351562)"><path d="M25.58 18.27 C25.58 18.27, 25.58 18.27, 25.58 18.27 M25.58 18.27 C25.58 18.27, 25.58 18.27, 25.58 18.27 M4.72 54.46 C12.43 43.81, 20.5 35.48, 45.4 7.67 M4.72 54.46 C16.3 40.88, 27.6 29.02, 45.4 7.67 M1.58 70.27 C15.71 56.95, 29.56 40.59, 59.97 3.1 M1.58 70.27 C21.7 47.05, 41.84 23.76, 59.97 3.1 M1.05 83.07 C28.76 54.45, 53.03 22.69, 70.6 3.07 M1.05 83.07 C20.22 62.6, 37.96 41.27, 70.6 3.07 M3.16 92.84 C25.81 69.88, 45.51 40.77, 81.88 2.28 M3.16 92.84 C29.99 62.24, 56.91 30.76, 81.88 2.28 M5.91 101.87 C24.36 79.38, 43.74 55.54, 91.2 3.75 M5.91 101.87 C25.58 81.66, 44.08 59.66, 91.2 3.75 M8.67 110.89 C32.86 82.84, 61.87 51.82, 99.21 6.74 M8.67 110.89 C35.65 78.93, 64.58 46.44, 99.21 6.74 M14.05 116.89 C36.33 90.3, 59.6 64.78, 106.56 10.48 M14.05 116.89 C50.29 76.82, 83.84 36.68, 106.56 10.48 M19.43 122.89 C39.89 96.07, 64.95 73.52, 114.56 13.46 M19.43 122.89 C44.52 91.25, 71.83 60.26, 114.56 13.46 M24.16 129.65 C54.66 95.6, 84.37 60.13, 120.6 18.71 M24.16 129.65 C56.72 91.61, 87.56 55.9, 120.6 18.71 M29.54 135.66 C62.5 96.33, 91.84 62.15, 125.98 24.71 M29.54 135.66 C50.43 111.88, 72.11 88.49, 125.98 24.71 M36.89 139.39 C56.35 114.02, 80.8 88.28, 131.36 30.72 M36.89 139.39 C72.22 97.74, 107.46 57.25, 131.36 30.72 M44.24 143.13 C77.57 109.92, 108.01 73.34, 136.09 37.47 M44.24 143.13 C71.35 109.81, 98.89 76.77, 136.09 37.47 M52.25 146.12 C78.32 113.7, 105.78 82.46, 140.16 44.99 M52.25 146.12 C84.18 108.33, 118.51 70.88, 140.16 44.99 M59.6 149.86 C76.83 127.6, 96.33 104.8, 142.26 54.76 M59.6 149.86 C85.06 122.77, 107.49 93.97, 142.26 54.76 M70.23 149.82 C89.01 128.65, 105.82 109.72, 144.36 64.54 M70.23 149.82 C93.69 123.96, 117.3 97.19, 144.36 64.54 M80.86 149.79 C102.08 124.14, 127.46 96.83, 145.81 75.07 M80.86 149.79 C102.36 124.35, 124.49 98.76, 145.81 75.07 M91.49 149.75 C103.79 136.27, 116.36 118.59, 143.31 90.13 M91.49 149.75 C109.14 130.86, 124.32 111.41, 143.31 90.13 M110.64 139.91 C117.55 130.9, 127.55 122.21, 141.48 104.44 M110.64 139.91 C120.34 126.75, 132.35 116.44, 141.48 104.44" stroke="#a5d8ff" stroke-width="1" fill="none"></path><path d="M86.84 1.96 C96.87 2.62, 108.74 8.21, 117.32 14.46 C125.91 20.71, 133.65 29.77, 138.35 39.47 C143.04 49.16, 145.17 61.57, 145.5 72.63 C145.84 83.69, 144.44 95.64, 140.35 105.8 C136.25 115.97, 128.86 126.41, 120.95 133.6 C113.04 140.79, 103.27 146.31, 92.9 148.97 C82.52 151.62, 69.2 151.6, 58.72 149.52 C48.23 147.44, 38.39 143.07, 29.99 136.46 C21.58 129.86, 13.42 119.54, 8.29 109.9 C3.16 100.25, -0.37 89.2, -0.78 78.58 C-1.19 67.97, 1.45 56.24, 5.82 46.22 C10.19 36.2, 17.37 25.68, 25.42 18.45 C33.48 11.22, 42.9 5.33, 54.14 2.85 C65.37 0.37, 85.53 3.03, 92.83 3.58 C100.13 4.14, 98.17 5.25, 97.94 6.2 M80.6 1.15 C90.58 1.1, 101.51 5.71, 110.51 11.13 C119.51 16.54, 128.49 24.47, 134.59 33.62 C140.7 42.78, 146.02 55.14, 147.14 66.05 C148.26 76.96, 144.76 88.63, 141.33 99.09 C137.91 109.54, 133.67 120.93, 126.59 128.77 C119.52 136.61, 108.99 142.24, 98.88 146.13 C88.77 150.02, 76.64 153.02, 65.93 152.11 C55.22 151.2, 43.67 146.74, 34.63 140.67 C25.58 134.6, 17.47 124.98, 11.64 115.71 C5.81 106.44, 0.86 95.62, -0.36 85.03 C-1.59 74.45, 0.51 62.76, 4.29 52.2 C8.06 41.64, 14.76 29.48, 22.26 21.65 C29.76 13.82, 39.46 8.77, 49.28 5.21 C59.11 1.65, 76.09 0.7, 81.21 0.28 C86.34 -0.14, 80.45 1.33, 80.03 2.69" stroke="#1e1e1e" stroke-width="2" fill="none"></path></g><g transform="translate(49.999969482421875 73.00007629394531) rotate(0 9.183998107910156 17.5)"><text x="0" y="0" font-family="Virgil, Segoe UI Emoji" font-size="28px" fill="#1e1e1e" text-anchor="start" style="white-space: pre;" direction="ltr" dominant-baseline="text-before-edge">A</text></g><g transform="translate(189.19992065429688 74.60008239746094) rotate(0 10.177993774414062 17.5)"><text x="0" y="0" font-family="Virgil, Segoe UI Emoji" font-size="28px" fill="#1e1e1e" text-anchor="start" style="white-space: pre;" direction="ltr" dominant-baseline="text-before-edge">B</text></g><g stroke-linecap="round" transform="translate(97.80003356933594 10.199981689453125) rotate(0 73.19999694824219 75.60000610351562)"><path d="M87.57 1.37 C97.86 2.43, 110.08 8.7, 118.56 15.31 C127.03 21.93, 133.69 31.23, 138.42 41.05 C143.14 50.88, 146.6 63.28, 146.89 74.28 C147.18 85.27, 144.59 97.19, 140.15 107.01 C135.7 116.83, 128.41 126.15, 120.25 133.2 C112.09 140.25, 101.69 146.57, 91.18 149.29 C80.66 152.01, 67.73 151.77, 57.19 149.54 C46.65 147.3, 36.08 142.42, 27.96 135.87 C19.84 129.32, 13.12 120, 8.49 110.23 C3.86 100.45, 0.38 88.35, 0.16 77.23 C-0.06 66.11, 2.8 53.43, 7.17 43.49 C11.55 33.55, 18.45 24.33, 26.42 17.6 C34.4 10.86, 43.4 5.58, 55.02 3.08 C66.64 0.57, 88.58 1.79, 96.15 2.56 C103.73 3.33, 100.88 6.49, 100.47 7.7 M72.1 1.01 C82.37 -0.13, 94.84 2.97, 104.4 7.29 C113.97 11.62, 122.67 18.81, 129.5 26.96 C136.33 35.12, 142.66 45.32, 145.38 56.21 C148.11 67.09, 148.34 81.64, 145.87 92.29 C143.4 102.93, 137.07 111.76, 130.57 120.08 C124.08 128.4, 116.18 137.13, 106.9 142.2 C97.63 147.28, 85.52 150.26, 74.91 150.55 C64.3 150.84, 53 148.57, 43.24 143.96 C33.47 139.35, 23.36 131.22, 16.33 122.87 C9.3 114.52, 3.75 104.3, 1.06 93.86 C-1.63 83.42, -1.92 71.11, 0.17 60.23 C2.27 49.34, 7.16 37.3, 13.61 28.57 C20.07 19.83, 29.4 12.43, 38.91 7.83 C48.41 3.22, 64.97 1.91, 70.65 0.94 C76.33 -0.04, 72.68 0.88, 73.01 1.96" stroke="#1e1e1e" stroke-width="2" fill="none"></path></g></svg>