<svg version="1.1" xmlns="http://www.w3.org/2000/svg" viewBox="0 0 254.2000274658203 174.20001220703125" width="254.2000274658203" height="174.20001220703125">
  <!-- svg-source:excalidraw -->
  
  <defs>
    <style class="style-fonts">
      @font-face {
        font-family: "Virgil";
        src: url("https://excalidraw.com/Virgil.woff2");
      }
      @font-face {
        font-family: "Cascadia";
        src: url("https://excalidraw.com/Cascadia.woff2");
      }
      @font-face {
        font-family: "Assistant";
        src: url("https://excalidraw.com/Assistant-Regular.woff2");
      }
    </style>
    
  </defs>
  <rect x="0" y="0" width="254.2000274658203" height="174.20001220703125" fill="#ffffff"></rect><g transform="translate(49.999969482421875 72.80009460449219) rotate(0 9.183998107910156 17.5)"><text x="0" y="0" font-family="Virgil, Segoe UI Emoji" font-size="28px" fill="#1e1e1e" text-anchor="start" style="white-space: pre;" direction="ltr" dominant-baseline="text-before-edge">A</text></g><g transform="translate(189.19992065429688 75.20008850097656) rotate(0 10.177993774414062 17.5)"><text x="0" y="0" font-family="Virgil, Segoe UI Emoji" font-size="28px" fill="#1e1e1e" text-anchor="start" style="white-space: pre;" direction="ltr" dominant-baseline="text-before-edge">B</text></g><g stroke-linecap="round" transform="translate(10 13) rotate(0 73.19999694824219 75.60000610351562)"><path d="M48.88 5.06 C57.9 0.42, 70.46 -0.75, 81.12 0.51 C91.77 1.76, 103.76 6.92, 112.81 12.57 C121.85 18.23, 130.02 25.22, 135.38 34.43 C140.74 43.64, 143.77 56.69, 144.96 67.82 C146.15 78.95, 145.92 90.97, 142.53 101.21 C139.14 111.45, 132.3 121.57, 124.63 129.26 C116.96 136.95, 106.32 143.74, 96.5 147.35 C86.68 150.96, 76.07 152.25, 65.69 150.93 C55.32 149.61, 43.25 145.15, 34.25 139.43 C25.26 133.71, 17.24 125.96, 11.74 116.62 C6.25 107.28, 2.42 94.31, 1.31 83.39 C0.2 72.46, 1.79 61.4, 5.07 51.06 C8.34 40.72, 11.99 29.43, 20.96 21.33 C29.92 13.23, 50.79 5.64, 58.88 2.45 C66.97 -0.73, 69.36 1.06, 69.51 2.23 M104.88 7.8 C113.97 11.73, 123.22 20.98, 129.93 29.83 C136.64 38.67, 142.82 50.16, 145.16 60.84 C147.51 71.53, 146.75 83.18, 144.01 93.93 C141.27 104.67, 135.53 116.94, 128.74 125.29 C121.95 133.64, 112.57 139.88, 103.28 144.03 C93.98 148.19, 83.61 150.21, 72.95 150.23 C62.28 150.25, 49.09 148.79, 39.29 144.16 C29.48 139.54, 20.31 131.46, 14.12 122.5 C7.93 113.53, 3.95 101.38, 2.14 90.39 C0.33 79.4, 0.8 67.2, 3.27 56.56 C5.73 45.92, 10.41 34.92, 16.94 26.52 C23.48 18.13, 32.73 10.42, 42.49 6.18 C52.25 1.94, 64.88 0.69, 75.5 1.07 C86.12 1.46, 101.15 7.09, 106.21 8.48 C111.27 9.88, 106.41 8.44, 105.86 9.43" stroke="#1e1e1e" stroke-width="2" fill="none"></path></g><g stroke-linecap="round" transform="translate(97.80003356933594 10) rotate(0 73.19999694824219 75.60000610351562)"><path d="M104 7.19 C113.71 10.6, 123.85 20.53, 130.61 28.85 C137.38 37.16, 142.4 46.49, 144.59 57.08 C146.78 67.66, 145.99 81.4, 143.74 92.35 C141.5 103.3, 137.54 114.22, 131.13 122.76 C124.72 131.3, 114.98 138.76, 105.3 143.57 C95.63 148.37, 83.49 151.47, 73.08 151.58 C62.66 151.7, 52.25 148.99, 42.81 144.25 C33.37 139.51, 23.16 131.54, 16.45 123.16 C9.73 114.78, 4.86 104.69, 2.54 93.97 C0.22 83.26, 0.21 69.61, 2.53 58.86 C4.85 48.12, 10.18 38.15, 16.47 29.51 C22.76 20.87, 30.93 11.78, 40.28 7.02 C49.64 2.27, 60.9 0.36, 72.59 0.97 C84.28 1.58, 103.57 8.28, 110.42 10.68 C117.26 13.07, 114.21 14.26, 113.65 15.34 M40.48 7.32 C49.4 2, 63.23 0.42, 74.03 0.48 C84.83 0.53, 95.93 2.7, 105.28 7.66 C114.62 12.61, 123.55 21.66, 130.08 30.21 C136.61 38.76, 141.82 48.67, 144.43 58.97 C147.04 69.28, 148.28 81.14, 145.76 92.04 C143.25 102.93, 136.37 115.53, 129.34 124.36 C122.31 133.19, 112.92 140.61, 103.57 145.01 C94.23 149.41, 83.54 151.12, 73.28 150.75 C63.02 150.39, 51.61 147.68, 42 142.82 C32.39 137.97, 22.38 130.2, 15.6 121.6 C8.82 113.01, 3.49 101.63, 1.33 91.24 C-0.82 80.86, 0.21 69.76, 2.69 59.27 C5.16 48.78, 9.59 36.98, 16.16 28.29 C22.72 19.6, 37.72 10.48, 42.1 7.11 C46.47 3.75, 41.94 7.11, 42.41 8.09" stroke="#1e1e1e" stroke-width="2" fill="none"></path></g><g stroke-linecap="round"><g transform="translate(138.79995727539062 45.80006408691406) rotate(0 -20 20)"><path d="M1.29 -1.31 C-5.63 4.95, -33.7 32.96, -40.41 40.18 M-1.46 4.15 C-8.88 12.11, -36.42 38.34, -42.87 43.9" stroke="#1971c2" stroke-width="1" fill="none"></path></g></g><mask></mask><g stroke-linecap="round"><g transform="translate(145.59292664136728 57.50431389186531) rotate(0 -22 22.399993896484375)"><path d="M2.67 1.03 C-4.67 8.41, -34.36 39.16, -42.06 46.7 M0.68 -0.88 C-7.04 6.94, -35.62 35.65, -43.24 42.72" stroke="#1971c2" stroke-width="1" fill="none"></path></g></g><mask></mask><g stroke-linecap="round"><g transform="translate(155.59292664136728 71.50432915065437) rotate(0 -22.4000244140625 23.600006103515625)"><path d="M-2.65 1.08 C-9.81 8.9, -38.57 39.43, -45.33 46.77 M1.11 -0.8 C-6.26 7.48, -40.32 42.19, -47.86 50.16" stroke="#1971c2" stroke-width="1" fill="none"></path></g></g><mask></mask><g stroke-linecap="round"><g transform="translate(158.79293884839853 93.30431694362312) rotate(0 -20 20)"><path d="M-2.41 -1.95 C-9.2 4.32, -32.74 33.44, -39.13 39.97 M1.47 3.16 C-5.75 11.13, -33.49 37.64, -40.9 43.59" stroke="#1971c2" stroke-width="1" fill="none"></path></g></g><mask></mask><g stroke-linecap="round"><g transform="translate(136.51663654297602 30.781672383286036) rotate(0 -20 20)"><path d="M0.37 0.01 C-5.66 6.57, -30.62 32.32, -37.48 39.2 M-2.88 -2.46 C-8.93 4.54, -31.66 35.9, -38.36 42.39" stroke="#1971c2" stroke-width="1" fill="none"></path></g></g><mask></mask><g stroke-linecap="round"><g transform="translate(147.31662433594477 69.7816876420751) rotate(0 -20 20)"><path d="M-1.61 2.13 C-8.57 8.42, -33.26 32.83, -39.9 38.85 M2.71 0.82 C-4.78 7.38, -34.29 35.25, -42.09 41.85" stroke="#1971c2" stroke-width="1" fill="none"></path></g></g><mask></mask><g stroke-linecap="round"><g transform="translate(153.11667316406977 82.58166017625479) rotate(0 -20 20)"><path d="M-0.82 2.1 C-7.29 9.06, -31.44 33.1, -38.3 39.57 M3.93 0.78 C-2.8 8.37, -32.92 37.12, -39.62 42.96" stroke="#1971c2" stroke-width="1" fill="none"></path></g></g><mask></mask><g stroke-linecap="round"><g transform="translate(151.31662433594477 112.38169374559072) rotate(0 -13.600006103515625 15.20001220703125)"><path d="M-2.8 -0.19 C-7.14 4.81, -22.78 26.89, -26.85 31.66 M0.88 -2.75 C-3.74 1.24, -23.92 21.79, -28.9 27.34" stroke="#1971c2" stroke-width="1" fill="none"></path></g></g><mask></mask><g stroke-linecap="round"><g transform="translate(139.91659992188227 53.38167848680166) rotate(0 -20 20)"><path d="M-0.86 0.53 C-6.89 6.64, -31.76 32.51, -38.64 39.1 M3.88 -1.65 C-2.19 6.08, -33.41 34.77, -40.14 42.24" stroke="#1971c2" stroke-width="1" fill="none"></path></g></g><mask></mask><g stroke-linecap="round"><g transform="translate(140.91659992188227 37.78170290086416) rotate(0 -20 20)"><path d="M-2.45 -0.28 C-9 6.32, -32.43 34.42, -38.84 41.24 M1.41 -2.9 C-5.44 2.7, -33.01 29.07, -40.45 36.91" stroke="#1971c2" stroke-width="1" fill="none"></path></g></g><mask></mask></svg>